<?xml version="1.0" standalone="no"?>
<!DOCTYPE svg PUBLIC "-//W3C//DTD SVG 20010904//EN"
 "http://www.w3.org/TR/2001/REC-SVG-20010904/DTD/svg10.dtd">
<svg version="1.0" xmlns="http://www.w3.org/2000/svg"
 width="993.000000pt" height="993.000000pt" viewBox="0 0 993.000000 993.000000"
 preserveAspectRatio="xMidYMid meet">
<metadata>
Created by potrace 1.14, written by Peter Selinger 2001-2017
</metadata>
<g transform="translate(0.000000,993.000000) scale(0.100000,-0.100000)"
fill="#000000" stroke="none">
<path d="M1755 8315 c-38 -7 -131 -23 -205 -35 -163 -26 -166 -26 -210 -34
-19 -3 -46 -8 -60 -10 -14 -2 -41 -7 -60 -10 -54 -9 -87 -15 -310 -51 -55 -9
-227 -37 -250 -41 -14 -2 -34 -6 -45 -8 -11 -2 -40 -7 -65 -11 -25 -4 -52 -9
-60 -10 -8 -2 -35 -6 -60 -9 -25 -3 -54 -8 -65 -10 -11 -2 -98 -16 -193 -32
l-173 -28 3 -135 3 -136 60 -1 c486 -9 596 -87 641 -454 3 -24 13 -146 20
-235 13 -180 17 -778 18 -2380 0 -1653 -4 -2062 -19 -2107 -2 -7 -6 -38 -10
-68 -15 -139 -73 -282 -141 -346 -48 -45 -115 -84 -180 -104 -75 -23 -234 -47
-331 -49 l-31 -1 0 -160 1 -160 1258 0 c1192 0 1259 1 1260 18 3 64 1 294 -3
297 -2 3 -42 7 -89 10 -318 19 -434 73 -514 240 -47 98 -69 212 -81 425 -4 63
-7 1359 -8 2880 -1 2450 -3 2765 -16 2767 -8 1 -46 -5 -85 -12z"/>
<path d="M7375 8320 c-22 -5 -62 -11 -90 -15 -27 -3 -57 -8 -65 -10 -8 -2 -60
-11 -115 -19 -150 -23 -173 -26 -265 -41 -47 -8 -103 -17 -125 -20 -22 -3 -83
-13 -135 -21 -52 -8 -106 -17 -120 -19 -14 -2 -38 -6 -55 -9 -16 -3 -52 -8
-80 -12 -27 -3 -52 -8 -55 -9 -3 -2 -33 -7 -65 -10 -33 -4 -62 -9 -65 -10 -3
-2 -26 -6 -50 -10 -25 -3 -56 -8 -70 -10 -14 -2 -56 -9 -95 -15 -38 -6 -81
-13 -95 -15 -14 -2 -65 -11 -115 -18 -49 -8 -124 -20 -165 -27 -41 -6 -84 -13
-95 -15 -11 -2 -23 -4 -27 -4 -5 -1 -8 -62 -8 -136 0 -101 3 -135 13 -136 6 0
59 -2 118 -4 347 -11 561 -71 672 -190 66 -69 79 -121 92 -370 14 -240 15
-324 21 -997 6 -581 4 -698 -7 -698 -7 0 -54 42 -104 93 -173 180 -337 282
-563 351 -211 65 -363 84 -632 80 -192 -3 -224 -5 -326 -25 -28 -5 -64 -12
-80 -15 -127 -23 -334 -98 -474 -173 -270 -143 -460 -311 -686 -606 -72 -94
-188 -307 -256 -470 -35 -82 -103 -296 -100 -312 1 -2 -4 -17 -9 -35 -15 -52
-31 -152 -48 -298 -20 -172 -18 -508 4 -630 2 -14 9 -56 15 -95 81 -518 337
-978 715 -1285 109 -88 209 -153 358 -232 98 -52 308 -129 432 -158 76 -18 84
-20 162 -31 39 -5 82 -12 95 -15 39 -10 449 -12 513 -3 33 4 80 10 105 14 96
12 301 61 355 84 11 5 47 19 80 32 134 50 348 174 449 259 73 62 144 126 172
157 18 18 39 33 48 33 14 0 16 -30 16 -295 l0 -296 93 6 c50 3 126 7 167 10
41 3 120 7 175 10 55 3 136 8 180 11 44 3 116 7 160 9 72 3 203 11 355 20 30
2 111 7 180 11 120 6 187 11 203 13 4 1 7 71 7 156 l0 155 -57 0 c-311 2 -430
43 -487 170 -26 58 -49 154 -61 250 -3 30 -8 66 -10 80 -2 14 -7 63 -10 110
-3 47 -9 112 -12 145 -3 33 -7 1295 -8 2805 -2 1510 -3 2748 -4 2753 -1 8 -11
8 -66 -3z m-2048 -2845 c107 -9 215 -40 328 -94 158 -76 261 -161 359 -296 50
-68 116 -171 116 -181 0 -3 13 -33 29 -67 61 -130 121 -343 137 -482 3 -27 8
-53 10 -56 16 -27 24 -624 11 -877 -10 -199 -34 -372 -72 -522 -96 -376 -371
-672 -728 -784 -256 -80 -503 -62 -697 51 -92 54 -233 199 -294 302 -26 45
-51 91 -53 102 -3 10 -9 19 -14 19 -5 0 -9 5 -9 11 0 6 -16 51 -35 100 -34 84
-96 310 -108 394 -4 22 -8 49 -11 60 -2 11 -7 49 -11 85 -4 36 -8 72 -10 81
-19 98 -26 597 -11 819 4 69 10 127 11 130 2 3 6 35 10 70 4 36 15 108 26 160
11 52 22 108 24 123 3 15 23 82 45 150 145 439 407 681 765 704 44 3 82 7 83
9 2 1 9 1 15 -1 7 -2 44 -6 84 -10z"/>
<path d="M9175 2804 c-162 -37 -325 -167 -398 -316 -21 -42 -40 -87 -43 -100
-18 -86 -22 -119 -22 -189 -1 -278 170 -500 437 -569 107 -27 279 -21 378 13
291 102 450 391 384 700 -45 211 -228 400 -441 457 -67 18 -225 20 -295 4z"/>
</g>
</svg>
